<svg viewBox="0 0 130 130" fill="none" xmlns="http://www.w3.org/2000/svg">
<path fill-rule="evenodd" clip-rule="evenodd" d="M91.5022 55.7984C98.8361 51.5656 98.8377 40.9808 91.505 36.7458L49.5086 12.4909C42.1759 8.25596 33.0084 13.547 33.0072 22.0148L33 70.5122C32.9988 78.98 42.1646 84.2737 49.4986 80.0409L91.5022 55.7984ZM83.4929 51.8578C86.8516 50.0268 86.9938 45.2559 83.7501 43.2281L67.0048 32.7597L49.6988 22.03C46.3554 19.9571 42.0384 22.3785 42.0642 26.3123L42.3242 65.9134C42.349 69.6937 46.3982 72.0801 49.7173 70.2706L83.4929 51.8578Z" fill="#E6372C"/>
<path fill-rule="evenodd" clip-rule="evenodd" d="M71.2907 67.4635L67.265 60.7045L49.7173 70.2706C46.3982 72.0801 42.349 69.6937 42.3242 65.9134L42.0642 26.3123C42.0384 22.3785 46.3554 19.9571 49.6988 22.03L66.6099 32.5149L71.184 25.0095L49.5086 12.4909C42.1759 8.25596 33.0084 13.547 33.0072 22.0148L33 70.5122C32.9987 78.98 42.1646 84.2737 49.4986 80.0409L71.2907 67.4635Z" fill="#2663C2"/>
<path d="M48.2047 95.1094C48.1351 94.8674 48.0373 94.6536 47.9114 94.468C47.7855 94.2791 47.6313 94.12 47.449 93.9908C47.2701 93.8582 47.0646 93.7571 46.8326 93.6875C46.6039 93.6179 46.3503 93.5831 46.0719 93.5831C45.5516 93.5831 45.0942 93.7124 44.6998 93.9709C44.3087 94.2294 44.0037 94.6056 43.785 95.0994C43.5662 95.59 43.4569 96.1899 43.4569 96.8991C43.4569 97.6084 43.5646 98.2116 43.78 98.7088C43.9954 99.206 44.3004 99.5855 44.6948 99.8473C45.0892 100.106 45.5549 100.235 46.0918 100.235C46.579 100.235 46.995 100.149 47.3397 99.9766C47.6877 99.8009 47.9528 99.554 48.1351 99.2358C48.3207 98.9176 48.4135 98.5414 48.4135 98.1072L48.851 98.1719H46.226V96.5511H50.4867V97.8338C50.4867 98.7287 50.2978 99.4976 49.9199 100.141C49.5421 100.78 49.0217 101.274 48.3588 101.622C47.696 101.967 46.937 102.139 46.0819 102.139C45.1273 102.139 44.2888 101.929 43.5662 101.508C42.8437 101.084 42.2802 100.482 41.8759 99.7031C41.4748 98.9209 41.2743 97.9929 41.2743 96.919C41.2743 96.0937 41.3936 95.358 41.6323 94.7116C41.8742 94.062 42.2123 93.5118 42.6465 93.0611C43.0807 92.6103 43.5861 92.2673 44.1628 92.032C44.7395 91.7966 45.3643 91.679 46.0371 91.679C46.6138 91.679 47.1507 91.7635 47.6479 91.9325C48.1451 92.0982 48.5859 92.3336 48.9703 92.6385C49.3581 92.9434 49.6747 93.3063 49.9199 93.7273C50.1652 94.1449 50.3226 94.6056 50.3922 95.1094H48.2047ZM55.5142 102.149C54.742 102.149 54.0741 101.985 53.5107 101.657C52.9505 101.326 52.518 100.865 52.2131 100.275C51.9081 99.6816 51.7557 98.9938 51.7557 98.2116C51.7557 97.4228 51.9081 96.7334 52.2131 96.1435C52.518 95.5502 52.9505 95.0895 53.5107 94.7614C54.0741 94.4299 54.742 94.2642 55.5142 94.2642C56.2865 94.2642 56.9527 94.4299 57.5128 94.7614C58.0762 95.0895 58.5104 95.5502 58.8153 96.1435C59.1203 96.7334 59.2727 97.4228 59.2727 98.2116C59.2727 98.9938 59.1203 99.6816 58.8153 100.275C58.5104 100.865 58.0762 101.326 57.5128 101.657C56.9527 101.985 56.2865 102.149 55.5142 102.149ZM55.5241 100.509C55.8755 100.509 56.1688 100.409 56.4041 100.21C56.6394 100.008 56.8168 99.733 56.9361 99.3849C57.0587 99.0369 57.12 98.6409 57.12 98.1967C57.12 97.7526 57.0587 97.3565 56.9361 97.0085C56.8168 96.6605 56.6394 96.3854 56.4041 96.1832C56.1688 95.9811 55.8755 95.88 55.5241 95.88C55.1695 95.88 54.8712 95.9811 54.6293 96.1832C54.3906 96.3854 54.21 96.6605 54.0874 97.0085C53.968 97.3565 53.9084 97.7526 53.9084 98.1967C53.9084 98.6409 53.968 99.0369 54.0874 99.3849C54.21 99.733 54.3906 100.008 54.6293 100.21C54.8712 100.409 55.1695 100.509 55.5241 100.509ZM64.1001 102.149C63.3279 102.149 62.66 101.985 62.0966 101.657C61.5365 101.326 61.1039 100.865 60.799 100.275C60.4941 99.6816 60.3416 98.9938 60.3416 98.2116C60.3416 97.4228 60.4941 96.7334 60.799 96.1435C61.1039 95.5502 61.5365 95.0895 62.0966 94.7614C62.66 94.4299 63.3279 94.2642 64.1001 94.2642C64.8724 94.2642 65.5386 94.4299 66.0987 94.7614C66.6622 95.0895 67.0964 95.5502 67.4013 96.1435C67.7062 96.7334 67.8587 97.4228 67.8587 98.2116C67.8587 98.9938 67.7062 99.6816 67.4013 100.275C67.0964 100.865 66.6622 101.326 66.0987 101.657C65.5386 101.985 64.8724 102.149 64.1001 102.149ZM64.1101 100.509C64.4614 100.509 64.7547 100.409 64.9901 100.21C65.2254 100.008 65.4027 99.733 65.522 99.3849C65.6446 99.0369 65.706 98.6409 65.706 98.1967C65.706 97.7526 65.6446 97.3565 65.522 97.0085C65.4027 96.6605 65.2254 96.3854 64.9901 96.1832C64.7547 95.9811 64.4614 95.88 64.1101 95.88C63.7554 95.88 63.4571 95.9811 63.2152 96.1832C62.9766 96.3854 62.7959 96.6605 62.6733 97.0085C62.554 97.3565 62.4943 97.7526 62.4943 98.1967C62.4943 98.6409 62.554 99.0369 62.6733 99.3849C62.7959 99.733 62.9766 100.008 63.2152 100.21C63.4571 100.409 63.7554 100.509 64.1101 100.509ZM72.6761 105.023C71.9901 105.023 71.4018 104.928 70.9112 104.739C70.424 104.554 70.0362 104.3 69.7479 103.979C69.4595 103.657 69.2723 103.296 69.1861 102.895L71.1449 102.631C71.2045 102.784 71.299 102.926 71.4283 103.059C71.5575 103.192 71.7282 103.298 71.9403 103.377C72.1558 103.46 72.4176 103.501 72.7259 103.501C73.1866 103.501 73.5661 103.389 73.8643 103.163C74.166 102.941 74.3168 102.568 74.3168 102.045V100.648H74.2273C74.1345 100.86 73.9953 101.06 73.8097 101.249C73.6241 101.438 73.3854 101.592 73.0938 101.712C72.8021 101.831 72.4541 101.891 72.0497 101.891C71.4763 101.891 70.9543 101.758 70.4837 101.493C70.0163 101.224 69.6435 100.815 69.3651 100.265C69.09 99.7114 68.9524 99.0121 68.9524 98.1669C68.9524 97.3018 69.0933 96.5793 69.375 95.9993C69.6567 95.4193 70.0313 94.9851 70.4986 94.6967C70.9692 94.4084 71.4846 94.2642 72.0447 94.2642C72.4723 94.2642 72.8303 94.3371 73.1186 94.483C73.407 94.6255 73.639 94.8045 73.8146 95.0199C73.9936 95.232 74.1312 95.4408 74.2273 95.6463H74.3068V94.3636H76.4098V102.075C76.4098 102.724 76.2507 103.268 75.9325 103.705C75.6143 104.143 75.1735 104.471 74.6101 104.69C74.05 104.912 73.4053 105.023 72.6761 105.023ZM72.7209 100.3C73.0623 100.3 73.3506 100.215 73.5859 100.046C73.8246 99.8738 74.0069 99.6286 74.1328 99.3104C74.2621 98.9889 74.3267 98.6044 74.3267 98.157C74.3267 97.7095 74.2637 97.3217 74.1378 96.9936C74.0118 96.6622 73.8295 96.4053 73.5909 96.223C73.3523 96.0407 73.0623 95.9496 72.7209 95.9496C72.3729 95.9496 72.0795 96.044 71.8409 96.233C71.6023 96.4186 71.4216 96.6771 71.299 97.0085C71.1764 97.34 71.1151 97.7228 71.1151 98.157C71.1151 98.5978 71.1764 98.9789 71.299 99.3004C71.425 99.6186 71.6056 99.8655 71.8409 100.041C72.0795 100.214 72.3729 100.3 72.7209 100.3ZM80.2131 91.8182V102H78.0952V91.8182H80.2131ZM85.3897 102.149C84.6042 102.149 83.9281 101.99 83.3613 101.672C82.7979 101.35 82.3637 100.896 82.0588 100.31C81.7538 99.7197 81.6014 99.022 81.6014 98.2166C81.6014 97.4311 81.7538 96.7417 82.0588 96.1484C82.3637 95.5552 82.7929 95.0928 83.3464 94.7614C83.9032 94.4299 84.5562 94.2642 85.3052 94.2642C85.809 94.2642 86.278 94.3454 86.7122 94.5078C87.1497 94.6669 87.5308 94.9072 87.8556 95.2287C88.1838 95.5502 88.439 95.9545 88.6213 96.4418C88.8036 96.9257 88.8947 97.4924 88.8947 98.142V98.7237H82.4466V97.4112H86.9011C86.9011 97.1063 86.8348 96.8362 86.7022 96.6009C86.5697 96.3655 86.3857 96.1816 86.1504 96.049C85.9184 95.9131 85.6483 95.8452 85.34 95.8452C85.0185 95.8452 84.7335 95.9197 84.4849 96.0689C84.2396 96.2147 84.0474 96.4119 83.9082 96.6605C83.769 96.9058 83.6977 97.1792 83.6944 97.4808V98.7287C83.6944 99.1065 83.764 99.433 83.9032 99.7081C84.0458 99.9832 84.2463 100.195 84.5048 100.344C84.7633 100.494 85.0699 100.568 85.4245 100.568C85.6599 100.568 85.8753 100.535 86.0708 100.469C86.2664 100.402 86.4338 100.303 86.573 100.17C86.7122 100.038 86.8182 99.8755 86.8912 99.6832L88.85 99.8125C88.7505 100.283 88.5467 100.694 88.2385 101.045C87.9335 101.393 87.5391 101.665 87.0552 101.861C86.5746 102.053 86.0195 102.149 85.3897 102.149Z" fill="#202020"/>
<path d="M19.9872 109.273L22.4162 116.381H22.5142L24.9432 109.273H26.3665L23.2259 118H21.7045L18.5639 109.273H19.9872ZM27.5245 118V111.455H28.7987V118H27.5245ZM28.168 110.445C27.9464 110.445 27.756 110.371 27.5969 110.223C27.4407 110.072 27.3626 109.893 27.3626 109.686C27.3626 109.476 27.4407 109.297 27.5969 109.149C27.756 108.999 27.9464 108.923 28.168 108.923C28.3896 108.923 28.5785 108.999 28.7347 109.149C28.8938 109.297 28.9734 109.476 28.9734 109.686C28.9734 109.893 28.8938 110.072 28.7347 110.223C28.5785 110.371 28.3896 110.445 28.168 110.445ZM32.9631 118.128C32.4347 118.128 31.9631 117.993 31.5483 117.723C31.1364 117.45 30.8125 117.062 30.5767 116.56C30.3438 116.054 30.2273 115.447 30.2273 114.74C30.2273 114.033 30.3452 113.428 30.581 112.925C30.8196 112.422 31.1463 112.037 31.5611 111.77C31.9759 111.503 32.446 111.369 32.9716 111.369C33.3778 111.369 33.7045 111.438 33.9517 111.574C34.2017 111.707 34.3949 111.864 34.5312 112.043C34.6705 112.222 34.7784 112.379 34.8551 112.516H34.9318V109.273H36.206V118H34.9616V116.982H34.8551C34.7784 117.121 34.6676 117.28 34.5227 117.459C34.3807 117.638 34.1847 117.794 33.9347 117.928C33.6847 118.061 33.3608 118.128 32.9631 118.128ZM33.2443 117.041C33.6108 117.041 33.9205 116.945 34.1733 116.751C34.429 116.555 34.6222 116.284 34.7528 115.938C34.8864 115.591 34.9531 115.187 34.9531 114.727C34.9531 114.273 34.8878 113.875 34.7571 113.534C34.6264 113.193 34.4347 112.928 34.1818 112.737C33.929 112.547 33.6165 112.452 33.2443 112.452C32.8608 112.452 32.5412 112.551 32.2855 112.75C32.0298 112.949 31.8366 113.22 31.706 113.564C31.5781 113.908 31.5142 114.295 31.5142 114.727C31.5142 115.165 31.5795 115.558 31.7102 115.908C31.8409 116.257 32.0341 116.534 32.2898 116.739C32.5483 116.94 32.8665 117.041 33.2443 117.041ZM40.8455 118.132C40.2006 118.132 39.6452 117.994 39.1793 117.719C38.7163 117.44 38.3583 117.05 38.1055 116.547C37.8555 116.041 37.7305 115.449 37.7305 114.77C37.7305 114.099 37.8555 113.509 38.1055 112.997C38.3583 112.486 38.7106 112.087 39.1623 111.8C39.6168 111.513 40.1481 111.369 40.756 111.369C41.1254 111.369 41.4833 111.43 41.8299 111.553C42.1765 111.675 42.4876 111.866 42.7631 112.128C43.0387 112.389 43.256 112.729 43.4151 113.146C43.5742 113.561 43.6538 114.065 43.6538 114.659V115.111H38.4506V114.156H42.4052C42.4052 113.821 42.337 113.524 42.2006 113.266C42.0643 113.004 41.8725 112.798 41.6254 112.648C41.381 112.497 41.0941 112.422 40.7646 112.422C40.4066 112.422 40.0941 112.51 39.8271 112.686C39.5629 112.859 39.3583 113.087 39.2134 113.368C39.0714 113.646 39.0004 113.949 39.0004 114.276V115.021C39.0004 115.459 39.0771 115.831 39.2305 116.138C39.3867 116.445 39.604 116.679 39.8825 116.841C40.1609 117 40.4862 117.08 40.8583 117.08C41.0998 117.08 41.32 117.045 41.5188 116.977C41.7177 116.906 41.8896 116.801 42.0344 116.662C42.1793 116.523 42.2901 116.351 42.3668 116.146L43.5728 116.364C43.4762 116.719 43.3029 117.03 43.0529 117.297C42.8058 117.561 42.4947 117.767 42.1197 117.915C41.7475 118.06 41.3228 118.132 40.8455 118.132ZM47.8246 118.132C47.2109 118.132 46.6754 117.991 46.218 117.71C45.7607 117.429 45.4055 117.036 45.1527 116.53C44.8999 116.024 44.7734 115.433 44.7734 114.757C44.7734 114.078 44.8999 113.484 45.1527 112.976C45.4055 112.467 45.7607 112.072 46.218 111.791C46.6754 111.51 47.2109 111.369 47.8246 111.369C48.4382 111.369 48.9737 111.51 49.4311 111.791C49.8885 112.072 50.2436 112.467 50.4964 112.976C50.7493 113.484 50.8757 114.078 50.8757 114.757C50.8757 115.433 50.7493 116.024 50.4964 116.53C50.2436 117.036 49.8885 117.429 49.4311 117.71C48.9737 117.991 48.4382 118.132 47.8246 118.132ZM47.8288 117.062C48.2266 117.062 48.5561 116.957 48.8175 116.747C49.0788 116.537 49.272 116.257 49.397 115.908C49.5249 115.558 49.5888 115.173 49.5888 114.753C49.5888 114.335 49.5249 113.952 49.397 113.602C49.272 113.25 49.0788 112.967 48.8175 112.754C48.5561 112.541 48.2266 112.435 47.8288 112.435C47.4283 112.435 47.0959 112.541 46.8317 112.754C46.5703 112.967 46.3757 113.25 46.2479 113.602C46.1229 113.952 46.0604 114.335 46.0604 114.753C46.0604 115.173 46.1229 115.558 46.2479 115.908C46.3757 116.257 46.5703 116.537 46.8317 116.747C47.0959 116.957 47.4283 117.062 47.8288 117.062ZM58.4013 118H55.576V109.273H58.4908C59.3459 109.273 60.0803 109.447 60.6939 109.797C61.3075 110.143 61.7777 110.642 62.1044 111.293C62.4339 111.94 62.5987 112.717 62.5987 113.624C62.5987 114.533 62.4325 115.314 62.1001 115.967C61.7706 116.621 61.2933 117.124 60.6683 117.476C60.0433 117.825 59.2876 118 58.4013 118ZM56.8928 116.849H58.3288C58.9936 116.849 59.5462 116.724 59.9865 116.474C60.4268 116.222 60.7564 115.857 60.9751 115.379C61.1939 114.899 61.3033 114.314 61.3033 113.624C61.3033 112.939 61.1939 112.358 60.9751 111.881C60.7592 111.403 60.4368 111.041 60.0078 110.794C59.5788 110.547 59.0462 110.423 58.4098 110.423H56.8928V116.849ZM64.1339 118V111.455H65.408V118H64.1339ZM64.7773 110.445C64.5558 110.445 64.3654 110.371 64.2063 110.223C64.0501 110.072 63.9719 109.893 63.9719 109.686C63.9719 109.476 64.0501 109.297 64.2063 109.149C64.3654 108.999 64.5558 108.923 64.7773 108.923C64.9989 108.923 65.1879 108.999 65.3441 109.149C65.5032 109.297 65.5827 109.476 65.5827 109.686C65.5827 109.893 65.5032 110.072 65.3441 110.223C65.1879 110.371 64.9989 110.445 64.7773 110.445ZM72.027 113.053L70.8722 113.257C70.8239 113.109 70.7472 112.969 70.642 112.835C70.5398 112.702 70.4006 112.592 70.2244 112.507C70.0483 112.422 69.8281 112.379 69.5639 112.379C69.2031 112.379 68.902 112.46 68.6605 112.622C68.419 112.781 68.2983 112.987 68.2983 113.24C68.2983 113.459 68.3793 113.635 68.5412 113.768C68.7031 113.902 68.9645 114.011 69.3253 114.097L70.3651 114.335C70.9673 114.474 71.4162 114.689 71.7116 114.979C72.0071 115.268 72.1548 115.645 72.1548 116.108C72.1548 116.5 72.0412 116.849 71.8139 117.156C71.5895 117.46 71.2756 117.699 70.8722 117.872C70.4716 118.045 70.0071 118.132 69.4787 118.132C68.7457 118.132 68.1477 117.976 67.6847 117.663C67.2216 117.348 66.9375 116.901 66.8324 116.321L68.0639 116.134C68.1406 116.455 68.2983 116.697 68.5369 116.862C68.7756 117.024 69.0866 117.105 69.4702 117.105C69.8878 117.105 70.2216 117.018 70.4716 116.845C70.7216 116.669 70.8466 116.455 70.8466 116.202C70.8466 115.997 70.7699 115.825 70.6165 115.686C70.4659 115.547 70.2344 115.442 69.9219 115.371L68.8139 115.128C68.2031 114.989 67.7514 114.767 67.4588 114.463C67.169 114.159 67.0241 113.774 67.0241 113.308C67.0241 112.922 67.1321 112.584 67.348 112.294C67.5639 112.004 67.8622 111.778 68.2429 111.616C68.6236 111.452 69.0597 111.369 69.5511 111.369C70.2585 111.369 70.8153 111.523 71.2216 111.83C71.6278 112.134 71.8963 112.541 72.027 113.053ZM76.3129 118.132C75.6793 118.132 75.1339 117.989 74.6765 117.702C74.2219 117.412 73.8725 117.013 73.6282 116.504C73.3839 115.996 73.2617 115.413 73.2617 114.757C73.2617 114.092 73.3867 113.506 73.6367 112.997C73.8867 112.486 74.239 112.087 74.6935 111.8C75.1481 111.513 75.6836 111.369 76.3001 111.369C76.7972 111.369 77.2404 111.462 77.6296 111.646C78.0188 111.828 78.3327 112.084 78.5714 112.413C78.8129 112.743 78.9563 113.128 79.0018 113.568H77.7617C77.6935 113.261 77.5373 112.997 77.293 112.776C77.0515 112.554 76.7276 112.443 76.3214 112.443C75.9663 112.443 75.6552 112.537 75.3881 112.724C75.1239 112.909 74.918 113.173 74.7702 113.517C74.6225 113.858 74.5487 114.261 74.5487 114.727C74.5487 115.205 74.6211 115.616 74.766 115.963C74.9109 116.31 75.1154 116.578 75.3796 116.768C75.6467 116.959 75.9606 117.054 76.3214 117.054C76.5629 117.054 76.7816 117.01 76.9776 116.922C77.1765 116.831 77.3427 116.702 77.4762 116.534C77.6126 116.366 77.7077 116.165 77.7617 115.929H79.0018C78.9563 116.352 78.8185 116.73 78.5884 117.062C78.3583 117.395 78.0501 117.656 77.6637 117.847C77.2802 118.037 76.8299 118.132 76.3129 118.132ZM83.1214 118.132C82.5078 118.132 81.9723 117.991 81.5149 117.71C81.0575 117.429 80.7024 117.036 80.4496 116.53C80.1967 116.024 80.0703 115.433 80.0703 114.757C80.0703 114.078 80.1967 113.484 80.4496 112.976C80.7024 112.467 81.0575 112.072 81.5149 111.791C81.9723 111.51 82.5078 111.369 83.1214 111.369C83.7351 111.369 84.2706 111.51 84.728 111.791C85.1854 112.072 85.5405 112.467 85.7933 112.976C86.0462 113.484 86.1726 114.078 86.1726 114.757C86.1726 115.433 86.0462 116.024 85.7933 116.53C85.5405 117.036 85.1854 117.429 84.728 117.71C84.2706 117.991 83.7351 118.132 83.1214 118.132ZM83.1257 117.062C83.5234 117.062 83.853 116.957 84.1143 116.747C84.3757 116.537 84.5689 116.257 84.6939 115.908C84.8217 115.558 84.8857 115.173 84.8857 114.753C84.8857 114.335 84.8217 113.952 84.6939 113.602C84.5689 113.25 84.3757 112.967 84.1143 112.754C83.853 112.541 83.5234 112.435 83.1257 112.435C82.7251 112.435 82.3928 112.541 82.1286 112.754C81.8672 112.967 81.6726 113.25 81.5447 113.602C81.4197 113.952 81.3572 114.335 81.3572 114.753C81.3572 115.173 81.4197 115.558 81.5447 115.908C81.6726 116.257 81.8672 116.537 82.1286 116.747C82.3928 116.957 82.7251 117.062 83.1257 117.062ZM92.9716 111.455L90.598 118H89.2344L86.8565 111.455H88.2244L89.8821 116.491H89.9503L91.6037 111.455H92.9716ZM96.7674 118.132C96.1225 118.132 95.5671 117.994 95.1012 117.719C94.6381 117.44 94.2802 117.05 94.0273 116.547C93.7773 116.041 93.6523 115.449 93.6523 114.77C93.6523 114.099 93.7773 113.509 94.0273 112.997C94.2802 112.486 94.6325 112.087 95.0842 111.8C95.5387 111.513 96.07 111.369 96.6779 111.369C97.0472 111.369 97.4052 111.43 97.7518 111.553C98.0984 111.675 98.4094 111.866 98.685 112.128C98.9606 112.389 99.1779 112.729 99.337 113.146C99.4961 113.561 99.5756 114.065 99.5756 114.659V115.111H94.3725V114.156H98.3271C98.3271 113.821 98.2589 113.524 98.1225 113.266C97.9862 113.004 97.7944 112.798 97.5472 112.648C97.3029 112.497 97.016 112.422 96.6864 112.422C96.3285 112.422 96.016 112.51 95.7489 112.686C95.4847 112.859 95.2802 113.087 95.1353 113.368C94.9933 113.646 94.9222 113.949 94.9222 114.276V115.021C94.9222 115.459 94.9989 115.831 95.1523 116.138C95.3086 116.445 95.5259 116.679 95.8043 116.841C96.0827 117 96.408 117.08 96.7802 117.08C97.0217 117.08 97.2418 117.045 97.4407 116.977C97.6396 116.906 97.8114 116.801 97.9563 116.662C98.1012 116.523 98.212 116.351 98.2887 116.146L99.4947 116.364C99.3981 116.719 99.2248 117.03 98.9748 117.297C98.7276 117.561 98.4165 117.767 98.0415 117.915C97.6694 118.06 97.2447 118.132 96.7674 118.132ZM100.989 118V111.455H102.221V112.494H102.289C102.408 112.142 102.619 111.865 102.92 111.663C103.224 111.459 103.567 111.357 103.951 111.357C104.031 111.357 104.124 111.359 104.232 111.365C104.343 111.371 104.43 111.378 104.492 111.386V112.605C104.441 112.591 104.35 112.575 104.219 112.558C104.089 112.538 103.958 112.528 103.827 112.528C103.526 112.528 103.258 112.592 103.022 112.72C102.789 112.845 102.604 113.02 102.468 113.244C102.332 113.466 102.263 113.719 102.263 114.003V118H100.989ZM106.599 120.455C106.409 120.455 106.236 120.439 106.08 120.408C105.923 120.379 105.807 120.348 105.73 120.314L106.037 119.27C106.27 119.332 106.477 119.359 106.659 119.351C106.841 119.342 107.001 119.274 107.141 119.146C107.283 119.018 107.408 118.81 107.516 118.52L107.673 118.085L105.278 111.455H106.642L108.3 116.534H108.368L110.026 111.455H111.393L108.696 118.874C108.571 119.214 108.412 119.503 108.219 119.739C108.026 119.977 107.795 120.156 107.528 120.276C107.261 120.395 106.952 120.455 106.599 120.455Z" fill="#353535"/>
</svg>
